Coordinates
version=1
nRows=7
nColumns=40
inDegrees=yes
endheader
time	pelvis_tilt	pelvis_list	pelvis_rotation	pelvis_tx	pelvis_ty	pelvis_tz	hip_flexion_r	hip_adduction_r	hip_rotation_r	knee_angle_r	knee_angle_r_beta	ankle_angle_r	subtalar_angle_r	mtp_angle_r	hip_flexion_l	hip_adduction_l	hip_rotation_l	knee_angle_l	knee_angle_l_beta	ankle_angle_l	subtalar_angle_l	mtp_angle_l	lumbar_extension	lumbar_bending	lumbar_rotation	arm_flex_r	arm_add_r	arm_rot_r	elbow_flex_r	pro_sup_r	wrist_flex_r	wrist_dev_r	arm_flex_l	arm_add_l	arm_rot_l	elbow_flex_l	pro_sup_l	wrist_flex_l	wrist_dev_l
1760624777.95199990	      7.31372269	      0.97746948	     -1.33807777	      0.04655207	      0.95022556	      0.01085345	     80.00000000	     -7.00000000	      0.00000000	     80.00000000	      1.39626340	      0.00000000	      0.00000000	      0.00000000	     80.00000000	     -7.00000000	      0.00000000	     80.00000000	      1.39626340	      0.00000000	      0.00000000	      0.00000000	    -10.41344728	     -0.93752578	     -1.36152453	      3.27427822	     -2.87162885	      2.21016976	     11.15036785	      0.00000000	    -10.40216523	     -0.11190740	      4.70020052	     -1.81045788	     -2.43706559	      0.07269367	      0.04862703	     -1.00905761	      1.28901965
1760624777.98600006	      7.30828557	      0.98431105	     -1.33308213	      0.04702531	      0.95123486	      0.01040097	     80.00000000	     -7.00000000	      0.00000000	     80.00000000	      1.39626340	      0.00000000	      0.00000000	      0.00000000	     80.00000000	     -7.00000000	      0.00000000	     80.00000000	      1.39626340	      0.00000000	      0.00000000	      0.00000000	    -10.41081071	     -0.92890862	     -1.35417827	      3.27941628	     -2.89409416	      2.25905921	     11.14454153	      0.00000000	    -10.42810126	     -0.11206843	      4.69860767	     -1.83072809	     -2.38929877	      0.07953479	      0.03248147	     -1.00544489	      1.30902241
1760624778.01900005	      7.26990333	      0.95593620	     -1.29702838	      0.04740226	      0.95317398	      0.01089658	     80.00000000	     -7.00000000	      0.00000000	     80.00000000	      1.39626340	      0.00000000	      0.00000000	      0.00000000	     80.00000000	     -7.00000000	      0.00000000	     80.00000000	      1.39626340	      0.00000000	      0.00000000	      0.00000000	    -10.27023693	     -0.91545971	     -1.40842608	      3.15801652	     -2.88117439	      2.27134531	     11.73894740	      0.00000000	    -11.02860496	     -0.22374512	      4.64427122	     -1.85524781	     -2.36295445	      0.06447206	      0.00548635	     -1.01031988	      1.30588739
1760624778.05299997	      7.06125898	      0.95173921	     -1.24478572	      0.04573810	      0.95350784	      0.01084408	     80.00000000	     -7.00000000	      0.00000000	     80.00000000	      1.39626340	      0.00000000	      0.00000000	      0.00000000	     80.00000000	     -7.00000000	      0.00000000	     80.00000000	      1.39626340	      0.00000000	      0.00000000	      0.00000000	     -9.98980118	     -0.90908808	     -1.45422163	      3.04303814	     -2.87581006	      2.29854181	     11.31540073	      0.00000000	    -10.60584762	     -0.16019716	      4.56296295	     -1.86029426	     -2.37423939	      0.07757202	      0.05280522	     -1.01680720	      1.30288312
1760624778.08599997	      7.03768762	      0.94094903	     -1.23211317	      0.04599316	      0.95428045	      0.01116697	     80.00000000	     -7.00000000	      0.00000000	     80.00000000	      1.39626340	      0.00000000	      0.00000000	      0.00000000	     80.00000000	     -7.00000000	      0.00000000	     80.00000000	      1.39626340	      0.00000000	      0.00000000	      0.00000000	    -10.00293330	     -0.92918892	     -1.45644529	      3.07096289	     -2.84557004	      2.33474120	     11.40372153	      0.00000000	    -10.64354191	     -0.22074103	      4.57994567	     -1.89704224	     -2.33342529	      0.07552693	      0.10577663	     -0.99445054	      1.31821007
1760624778.11999989	      7.03403575	      0.96864617	     -1.18880276	      0.04664787	      0.95493537	      0.01137216	     80.00000000	     -7.00000000	      0.00000000	     80.00000000	      1.39626340	      0.00000000	      0.00000000	      0.00000000	     80.00000000	     -7.00000000	      0.00000000	     80.00000000	      1.39626340	      0.00000000	      0.00000000	      0.00000000	     -9.99450421	     -0.91932210	     -1.49869723	      3.04416386	     -2.89774517	      2.29040268	     12.17750160	      0.04503704	    -11.40080100	     -0.37036200	      4.56368069	     -1.87205156	     -2.29354687	      0.06847732	      0.10276190	     -0.98717052	      1.30986446
1760624778.15300012	      7.01939544	      0.97301282	     -1.18255400	      0.04669920	      0.95521545	      0.01137227	     80.00000000	     -7.00000000	      0.00000000	     80.00000000	      1.39626340	      0.00000000	      0.00000000	      0.00000000	     80.00000000	     -7.00000000	      0.00000000	     80.00000000	      1.39626340	      0.00000000	      0.00000000	      0.00000000	    -10.01395686	     -0.91745523	     -1.50086267	      3.07173673	     -2.92453068	      2.26477269	     12.19423103	      0.26472310	    -11.42470663	     -0.34893026	      4.57924522	     -1.87013510	     -2.28102125	      0.07327402	      0.02969152	     -0.99546869	      1.30979487
